<svg width="512" height="512" viewBox="0 0 512 512" fill="none" xmlns="http://www.w3.org/2000/svg">
  <rect width="512" height="512" rx="64" fill="#3b82f6"/>
  <svg x="128" y="128" width="256" height="256" viewBox="0 0 24 24" fill="none" stroke="white" stroke-width="2" stroke-linecap="round" stroke-linejoin="round">
    <path d="M21 16c0-1.1-.9-2-2-2s-2 .9-2 2 .9 2 2 2 2-.9 2-2z"/>
    <path d="M5 16c0-1.1-.9-2-2-2s-2 .9-2 2 .9 2 2 2 2-.9 2-2z"/>
    <path d="M13 16v-3a1 1 0 0 0-1-1H8a1 1 0 0 0-1 1v3"/>
    <path d="M13 16v-3a1 1 0 0 1 1 1h4a1 1 0 0 1 1 1v3"/>
  </svg>
</svg>

