<svg width="192" height="192" viewBox="0 0 192 192" fill="none" xmlns="http://www.w3.org/2000/svg">
  <rect width="192" height="192" rx="24" fill="#3b82f6"/>
  <svg x="48" y="48" width="96" height="96" viewBox="0 0 24 24" fill="none" stroke="white" stroke-width="2" stroke-linecap="round" stroke-linejoin="round">
    <path d="M21 16c0-1.1-.9-2-2-2s-2 .9-2 2 .9 2 2 2 2-.9 2-2z"/>
    <path d="M5 16c0-1.1-.9-2-2-2s-2 .9-2 2 .9 2 2 2 2-.9 2-2z"/>
    <path d="M13 16v-3a1 1 0 0 0-1-1H8a1 1 0 0 0-1 1v3"/>
    <path d="M13 16v-3a1 1 0 0 1 1 1h4a1 1 0 0 1 1 1v3"/>
  </svg>
</svg>

